<svg width="690" height="237" viewBox="0 0 690 237" fill="none" xmlns="http://www.w3.org/2000/svg">
<path d="M256.3 172L224.35 133.9H252.7L279.1 165.25V172H256.3ZM171.4 172V64.15H257.65C261.65 64.15 265.25 65.15 268.45 67.15C271.75 69.05 274.4 71.65 276.4 74.95C278.4 78.25 279.4 81.85 279.4 85.75V114.25C279.4 118.15 278.4 121.75 276.4 125.05C274.4 128.25 271.75 130.85 268.45 132.85C265.25 134.75 261.65 135.7 257.65 135.7L193 135.85V172H171.4ZM193.9 113.95H256.6C256.9 113.95 257.1 113.9 257.2 113.8C257.4 113.6 257.5 113.4 257.5 113.2V86.65C257.5 86.35 257.4 86.15 257.2 86.05C257.1 85.85 256.9 85.75 256.6 85.75H193.9C193.6 85.75 193.35 85.85 193.15 86.05C193.05 86.15 193 86.35 193 86.65V113.2C193 113.4 193.05 113.6 193.15 113.8C193.35 113.9 193.6 113.95 193.9 113.95ZM316.329 172C312.429 172 308.829 171.05 305.529 169.15C302.229 167.15 299.629 164.55 297.729 161.35C295.829 158.05 294.879 154.4 294.879 150.4V141.25H316.479V149.35C316.479 149.65 316.529 149.9 316.629 150.1C316.829 150.2 317.029 150.25 317.229 150.25H380.079C380.279 150.25 380.479 150.2 380.679 150.1C380.879 149.9 380.979 149.65 380.979 149.35V129.7C380.979 129.5 380.879 129.35 380.679 129.25C380.479 129.05 380.279 128.95 380.079 128.95H316.329C312.429 128.95 308.829 128 305.529 126.1C302.229 124.1 299.629 121.45 297.729 118.15C295.829 114.85 294.879 111.25 294.879 107.35V85.6C294.879 81.6 295.829 78 297.729 74.8C299.629 71.5 302.229 68.9 305.529 67C308.829 65 312.429 64 316.329 64H381.279C385.179 64 388.729 65 391.929 67C395.229 68.9 397.879 71.5 399.879 74.8C401.879 78 402.879 81.6 402.879 85.6V94.75H380.979V86.65C380.979 86.35 380.879 86.15 380.679 86.05C380.479 85.85 380.279 85.75 380.079 85.75H317.229C317.029 85.75 316.829 85.85 316.629 86.05C316.529 86.15 316.479 86.35 316.479 86.65V106.3C316.479 106.5 316.529 106.7 316.629 106.9C316.829 107 317.029 107.05 317.229 107.05H381.279C385.179 107.05 388.729 108.05 391.929 110.05C395.229 111.95 397.879 114.55 399.879 117.85C401.879 121.15 402.879 124.75 402.879 128.65V150.4C402.879 154.4 401.879 158.05 399.879 161.35C397.879 164.55 395.229 167.15 391.929 169.15C388.729 171.05 385.179 172 381.279 172H316.329ZM419.552 172V64H519.152V85.75H441.452V107.05H504.002V128.95H441.452V150.25H519.152V172H419.552Z" fill="white"/>
<path d="M1 175.832V107L100 165.999V237L1 175.832Z" fill="#EB0A1E"/>
<path d="M101 72.6854L38.037 111L1 87.5169V65.2697L101 1V72.6854Z" fill="#888889" stroke="#888889"/>
<path d="M689 175.832V107L590 165.999V237L689 175.832Z" fill="#EB0A1E"/>
<path d="M589 72.6854L651.963 111L689 87.5169V65.2697L589 1V72.6854Z" fill="#888889" stroke="#888889"/>
</svg>
